<svg id="svg" version="1.1" xmlns="http://www.w3.org/2000/svg" xmlns:xlink="http://www.w3.org/1999/xlink" width="400" height="400" viewBox="0, 0, 400,400"><g id="svgg"><path id="path0" d="M161.329 103.613 C 161.330 192.826,161.400 204.899,161.934 208.008 C 162.482 211.196,163.055 214.279,166.257 231.250 C 166.804 234.150,167.750 239.072,168.359 242.188 C 168.968 245.303,169.934 250.312,170.506 253.320 C 171.465 258.364,172.363 262.944,176.982 286.328 C 177.895 290.947,178.833 294.852,179.067 295.006 C 180.033 295.642,190.473 298.911,193.209 299.435 C 199.423 300.624,205.955 299.563,218.030 295.405 L 222.192 293.972 222.872 290.638 C 223.636 286.892,224.254 283.724,225.136 279.025 C 225.467 277.264,225.914 275.154,226.129 274.337 C 226.345 273.520,226.875 270.918,227.306 268.555 C 227.738 266.191,228.813 260.479,229.695 255.859 C 230.576 251.240,231.649 245.615,232.079 243.359 C 232.509 241.104,233.111 238.027,233.417 236.523 C 233.723 235.020,234.316 231.943,234.733 229.688 C 236.230 221.606,237.190 216.540,237.951 212.695 C 239.234 206.212,239.261 203.692,239.159 101.465 L 239.059 2.734 227.932 2.734 L 216.804 2.734 216.703 102.071 L 216.602 201.408 215.162 204.321 C 207.717 219.385,185.898 216.273,183.194 199.761 C 182.959 198.329,182.816 160.727,182.815 100.098 L 182.813 2.734 172.070 2.734 L 161.328 2.734 161.329 103.613 M217.349 299.632 C 203.639 304.537,196.325 304.859,184.773 301.065 C 181.976 300.147,179.688 299.536,179.688 299.708 C 179.688 300.034,180.446 303.812,184.376 323.047 C 185.671 329.385,188.231 342.129,190.064 351.367 C 191.897 360.605,193.473 368.531,193.565 368.979 C 194.385 372.962,201.239 374.876,204.840 372.129 C 206.395 370.944,207.191 369.394,207.601 366.757 C 207.747 365.812,208.460 362.051,209.184 358.398 C 209.907 354.746,210.680 350.791,210.900 349.609 C 211.274 347.605,212.826 340.024,218.217 313.867 C 221.310 298.857,221.386 298.405,220.801 298.470 C 220.640 298.487,219.086 299.010,217.349 299.632 " stroke="none" fill="#040404" fill-rule="evenodd"></path><path id="path1" d="M83.984 3.176 C 41.048 7.540,7.384 41.488,3.132 84.709 C 2.584 90.280,2.584 309.720,3.132 315.291 C 7.418 358.857,41.143 392.582,84.709 396.868 C 87.327 397.125,121.126 397.266,180.510 397.266 L 272.266 397.266 272.266 385.951 C 272.266 374.809,272.253 374.630,271.434 374.192 C 270.820 373.863,262.100 373.812,238.133 373.995 C 191.312 374.353,194.020 374.993,191.977 363.086 C 191.350 359.429,190.865 356.910,189.460 350.000 C 187.956 342.602,187.140 338.524,186.531 335.352 C 186.201 333.633,185.766 331.699,185.564 331.055 C 185.363 330.410,185.087 329.004,184.950 327.930 C 184.814 326.855,184.526 325.402,184.311 324.700 C 184.095 323.998,183.674 322.065,183.374 320.403 C 183.075 318.742,182.463 315.625,182.015 313.477 C 181.568 311.328,180.952 308.169,180.648 306.456 C 180.343 304.743,179.914 302.827,179.695 302.198 C 179.275 300.992,179.158 299.219,179.499 299.219 C 179.610 299.219,181.763 299.908,184.284 300.750 C 195.958 304.651,203.303 304.331,218.036 299.279 C 221.882 297.960,221.900 297.963,221.460 299.911 C 221.040 301.773,220.885 301.731,224.662 300.776 C 240.654 296.731,255.534 288.941,267.866 278.156 C 271.654 274.844,272.660 275.000,247.508 275.000 L 226.331 275.000 225.827 277.637 C 225.551 279.087,225.088 281.504,224.799 283.008 C 224.511 284.512,223.952 287.452,223.559 289.541 C 222.673 294.247,222.852 294.086,216.108 296.244 C 200.853 301.124,195.144 301.162,182.369 296.469 C 178.262 294.961,178.234 294.930,177.513 291.190 C 177.184 289.483,176.564 286.328,176.134 284.180 C 175.704 282.031,175.105 278.898,174.802 277.217 C 174.500 275.536,174.141 273.807,174.004 273.376 C 173.867 272.944,173.513 271.243,173.218 269.596 C 172.695 266.676,172.038 263.257,170.316 254.492 C 169.852 252.129,169.238 248.848,168.952 247.201 C 168.667 245.554,168.312 243.826,168.165 243.361 C 168.017 242.897,167.657 241.081,167.364 239.325 C 167.071 237.569,166.472 234.287,166.032 232.031 C 165.593 229.775,164.975 226.458,164.659 224.659 C 164.343 222.860,163.987 221.080,163.867 220.703 C 163.748 220.327,163.392 218.546,163.077 216.747 C 162.762 214.948,162.210 212.158,161.850 210.547 C 161.249 207.857,161.184 199.229,161.055 105.176 L 160.914 2.734 124.109 2.786 C 103.867 2.815,85.811 2.990,83.984 3.176 M183.297 102.051 L 183.398 201.367 184.649 204.007 C 191.870 219.252,214.025 216.133,216.425 199.534 C 216.632 198.104,216.784 156.312,216.789 99.902 L 216.797 2.734 199.996 2.734 L 183.196 2.734 183.297 102.051 M239.453 14.453 L 239.453 26.172 255.104 26.172 C 265.145 26.172,271.025 26.027,271.510 25.768 C 272.230 25.382,272.266 24.835,272.266 14.049 L 272.266 2.734 255.859 2.734 L 239.453 2.734 239.453 14.453 M274.609 14.049 C 274.609 24.835,274.645 25.382,275.365 25.768 C 276.234 26.233,325.813 26.328,351.254 25.914 L 367.090 25.656 365.283 24.087 C 354.103 14.377,338.924 7.177,323.633 4.330 C 316.307 2.966,311.846 2.734,292.927 2.734 L 274.609 2.734 274.609 14.049 M244.629 27.636 L 239.453 27.757 239.453 29.054 L 239.453 30.351 243.652 31.435 C 250.167 33.117,259.116 36.101,264.877 38.510 C 267.759 39.716,270.601 40.793,271.191 40.903 L 272.266 41.104 272.266 34.628 C 272.266 28.626,272.210 28.123,271.510 27.748 C 270.800 27.368,258.278 27.316,244.629 27.636 M275.293 27.766 C 274.682 28.121,274.609 28.907,274.609 35.115 C 274.609 43.207,274.120 42.260,279.883 45.312 C 294.826 53.226,311.245 65.013,320.099 74.182 C 320.948 75.062,321.898 75.781,322.210 75.781 C 323.611 75.781,370.161 28.528,369.359 27.919 C 368.420 27.207,276.510 27.057,275.293 27.766 M347.557 53.810 C 334.721 66.647,324.219 77.425,324.219 77.760 C 324.219 78.095,324.770 78.886,325.444 79.517 C 333.239 86.817,345.547 103.701,352.763 116.992 C 357.614 125.928,356.253 125.000,364.500 125.000 C 370.978 125.000,371.485 124.948,371.861 124.244 C 372.299 123.426,372.463 32.219,372.029 31.087 C 371.562 29.871,370.608 30.757,347.557 53.810 M239.453 67.180 C 239.453 92.218,239.573 101.953,239.883 101.953 C 242.934 101.953,259.830 112.193,268.004 118.995 C 269.906 120.579,271.644 121.875,271.865 121.875 C 272.136 121.875,272.266 109.338,272.266 83.017 L 272.266 44.159 271.387 43.600 C 267.661 41.231,249.344 34.737,240.527 32.660 L 239.453 32.407 239.453 67.180 M373.697 48.282 C 373.281 73.783,373.376 123.374,373.842 124.244 C 374.228 124.965,374.776 125.000,385.756 125.000 L 397.266 125.000 397.266 106.877 C 397.266 96.910,397.087 86.934,396.868 84.709 C 394.974 65.455,387.843 48.837,374.882 33.472 L 373.956 32.374 373.697 48.282 M274.870 45.964 C 274.232 46.601,274.582 122.656,275.222 122.656 C 276.030 122.656,320.313 78.571,320.312 77.768 C 320.311 77.153,314.707 71.929,308.505 66.762 C 297.296 57.424,276.357 44.476,274.870 45.964 M320.619 81.114 C 317.185 84.088,277.344 124.040,277.344 124.510 C 277.344 125.027,351.954 125.275,353.288 124.763 C 356.170 123.657,340.442 99.413,327.340 84.766 C 322.334 79.169,322.660 79.347,320.619 81.114 M239.453 114.622 L 239.453 125.000 254.070 125.000 C 268.638 125.000,269.922 124.925,269.922 124.079 C 269.922 121.696,247.036 106.563,240.332 104.513 L 239.453 104.244 239.453 114.622 M239.453 131.986 C 239.453 136.622,239.455 136.630,240.527 137.323 C 242.505 138.599,247.047 142.096,249.339 144.105 C 250.587 145.199,251.809 146.094,252.054 146.094 C 252.672 146.094,270.313 128.461,270.313 127.843 C 270.313 127.446,267.151 127.344,254.883 127.344 L 239.453 127.344 239.453 131.986 M277.734 127.743 C 277.734 127.965,279.010 129.679,280.569 131.553 C 295.504 149.510,303.736 169.880,305.467 193.164 C 305.789 197.495,306.010 198.734,306.527 199.121 C 307.481 199.834,370.249 199.834,371.216 199.121 C 372.327 198.302,371.042 180.064,369.113 169.260 C 366.860 156.644,361.402 139.215,356.720 129.688 L 355.664 127.539 316.699 127.440 C 290.123 127.372,277.734 127.468,277.734 127.743 M358.594 127.951 C 358.594 128.285,359.135 129.823,359.797 131.369 C 364.254 141.780,367.512 152.323,370.335 165.478 C 370.790 167.600,371.296 169.476,371.459 169.647 C 372.296 170.527,372.692 129.651,371.861 128.099 C 371.303 127.056,358.594 126.914,358.594 127.951 M373.842 128.099 C 372.738 130.161,373.714 198.274,374.859 199.111 C 375.401 199.508,377.947 199.598,386.313 199.518 L 397.070 199.414 397.170 163.379 L 397.270 127.344 385.758 127.344 C 374.776 127.344,374.228 127.379,373.842 128.099 M274.609 164.049 C 274.609 198.007,274.627 198.810,275.365 199.205 C 276.530 199.829,302.004 199.751,302.851 199.121 C 303.447 198.678,303.471 198.106,303.108 192.969 C 301.726 173.412,296.082 157.218,285.019 141.075 C 281.725 136.267,275.875 129.297,275.135 129.297 C 274.699 129.297,274.609 135.206,274.609 164.049 M262.594 138.773 C 252.784 148.590,253.256 147.752,255.866 150.716 C 261.461 157.072,265.711 164.177,269.342 173.242 C 270.547 176.250,271.697 178.878,271.899 179.082 C 272.127 179.313,272.266 170.152,272.266 154.766 C 272.266 135.189,272.164 130.078,271.774 130.078 C 271.504 130.078,267.373 133.991,262.594 138.773 M239.453 149.289 L 239.453 159.169 244.735 153.901 C 247.640 151.003,249.969 148.381,249.910 148.072 C 249.794 147.460,242.554 141.241,240.642 140.111 L 239.453 139.409 239.453 149.289 M245.405 155.962 L 239.453 161.923 239.453 180.766 L 239.453 199.609 255.199 199.609 C 274.208 199.609,272.420 200.238,271.866 193.749 C 270.580 178.690,264.495 164.112,254.869 153.027 C 251.568 149.226,252.383 148.973,245.405 155.962 M239.436 204.004 C 239.427 205.776,239.248 208.018,239.039 208.984 C 238.572 211.142,237.268 218.223,236.545 222.528 C 236.251 224.284,235.898 226.072,235.761 226.503 C 235.625 226.933,235.289 228.694,235.015 230.416 L 234.516 233.547 242.750 241.773 C 247.278 246.298,251.266 250.000,251.612 250.000 C 254.449 250.000,265.169 232.985,268.301 223.509 C 271.092 215.064,272.986 202.300,271.601 201.270 C 271.101 200.898,267.185 200.781,255.199 200.781 L 239.453 200.781 239.436 204.004 M275.293 201.203 C 274.403 201.721,274.209 270.726,275.098 270.675 C 278.598 270.475,292.489 248.410,297.335 235.352 C 301.268 224.754,304.817 202.771,302.838 201.270 C 302.015 200.645,276.357 200.584,275.293 201.203 M306.531 201.270 C 306.023 201.651,305.792 202.908,305.468 207.031 C 303.641 230.353,295.450 250.555,280.569 268.447 C 279.010 270.321,277.734 272.035,277.734 272.255 C 277.734 272.527,290.272 272.656,316.593 272.656 L 355.451 272.656 356.013 271.777 C 359.333 266.592,366.244 245.461,368.719 232.930 C 370.849 222.149,372.407 202.198,371.192 201.270 C 370.694 200.888,363.615 200.781,338.867 200.781 C 314.125 200.781,307.038 200.888,306.531 201.270 M374.856 201.282 C 373.702 202.125,372.730 269.824,373.842 271.901 C 374.228 272.621,374.776 272.656,385.758 272.656 L 397.270 272.656 397.170 236.816 L 397.070 200.977 386.313 200.873 C 377.924 200.792,375.402 200.882,374.856 201.282 M271.135 222.363 C 270.753 223.276,269.930 225.342,269.308 226.953 C 266.117 235.212,259.056 246.640,254.730 250.549 C 254.277 250.958,253.906 251.575,253.906 251.919 C 253.906 252.648,271.057 269.922,271.781 269.922 C 272.162 269.922,272.266 264.653,272.266 245.313 C 272.266 231.777,272.168 220.703,272.048 220.703 C 271.929 220.703,271.518 221.450,271.135 222.363 M371.427 230.273 C 371.288 230.488,370.799 232.400,370.341 234.522 C 367.466 247.827,364.249 258.232,359.797 268.631 C 357.955 272.935,357.593 272.656,365.025 272.656 C 370.984 272.656,371.487 272.601,371.861 271.901 C 372.483 270.739,372.051 229.310,371.427 230.273 M233.984 235.547 C 233.961 235.654,233.702 237.061,233.408 238.672 C 233.113 240.283,232.497 243.535,232.039 245.898 C 231.580 248.262,230.968 251.543,230.678 253.190 C 230.389 254.837,230.039 256.538,229.902 256.969 C 229.686 257.652,228.968 261.389,228.256 265.542 L 228.036 266.826 230.327 265.817 C 236.883 262.929,249.609 253.812,249.609 252.003 C 249.609 251.410,234.086 235.061,233.984 235.547 M249.339 255.895 C 243.751 260.794,238.318 264.343,231.348 267.650 C 228.195 269.145,227.344 269.719,227.344 270.347 C 227.344 270.786,227.162 271.485,226.939 271.901 C 226.542 272.643,226.902 272.656,248.228 272.656 C 265.583 272.656,269.922 272.556,269.922 272.157 C 269.922 271.664,252.346 253.906,251.859 253.906 C 251.721 253.906,250.587 254.801,249.339 255.895 M277.344 275.519 C 277.344 276.122,320.467 319.169,321.769 319.865 C 324.922 321.552,355.309 279.609,353.794 275.661 C 353.449 274.763,277.344 274.622,277.344 275.519 M356.955 275.684 C 356.632 276.060,354.745 279.355,352.763 283.008 C 345.719 295.983,336.620 308.684,327.364 318.462 C 325.634 320.290,324.219 321.997,324.219 322.257 C 324.219 322.820,370.532 369.676,371.252 369.841 C 372.286 370.078,372.884 277.667,371.861 275.756 C 371.271 274.653,357.897 274.588,356.955 275.684 M373.842 275.756 C 373.375 276.627,373.283 324.787,373.697 351.132 L 373.956 367.626 374.882 366.528 C 387.843 351.163,394.974 334.545,396.868 315.291 C 397.087 313.066,397.266 303.090,397.266 293.123 L 397.266 275.000 385.756 275.000 C 374.776 275.000,374.228 275.035,373.842 275.756 M274.609 315.637 C 274.609 351.243,274.656 353.949,275.270 354.184 C 276.994 354.846,294.786 343.987,304.985 336.047 C 310.122 332.049,320.313 323.038,320.313 322.494 C 320.313 321.898,275.694 277.344,275.096 277.344 C 274.711 277.344,274.609 285.316,274.609 315.637 M269.531 279.729 C 257.143 290.802,240.840 299.103,222.689 303.580 L 220.574 304.102 220.036 306.641 C 219.740 308.037,219.256 310.410,218.959 311.914 C 218.662 313.418,218.055 316.450,217.608 318.652 C 217.162 320.854,216.432 324.458,215.985 326.660 C 215.539 328.862,214.930 331.958,214.631 333.539 C 214.332 335.121,213.989 336.727,213.867 337.109 C 213.746 337.492,213.398 339.098,213.094 340.680 C 212.790 342.261,212.169 345.400,211.713 347.656 C 209.738 357.427,209.293 359.691,208.945 361.719 C 208.062 366.877,207.296 369.804,206.552 370.856 L 205.754 371.986 211.178 371.717 C 230.176 370.774,261.308 362.856,271.387 356.404 L 272.266 355.841 272.266 316.983 C 272.266 286.148,272.165 278.128,271.777 278.142 C 271.509 278.151,270.498 278.865,269.531 279.729 M318.271 327.584 C 307.904 337.295,295.675 346.065,282.617 353.153 C 273.681 358.004,274.609 356.644,274.609 364.891 C 274.609 371.369,274.661 371.875,275.365 372.252 C 276.662 372.946,368.402 372.801,369.356 372.104 C 370.031 371.611,325.156 326.096,322.420 324.498 C 322.061 324.288,320.745 325.267,318.271 327.584 M269.531 359.625 C 259.513 364.092,247.532 367.849,234.131 370.726 C 232.009 371.181,230.135 371.685,229.966 371.846 C 229.255 372.522,270.256 372.923,271.510 372.252 C 272.210 371.877,272.266 371.375,272.266 365.416 C 272.266 358.236,272.332 358.376,269.531 359.625 M275.293 374.250 C 274.667 374.615,274.609 375.599,274.609 385.957 L 274.609 397.266 292.927 397.266 C 311.846 397.266,316.307 397.034,323.633 395.670 C 338.924 392.823,354.103 385.623,365.283 375.913 L 367.090 374.344 351.025 374.087 C 325.723 373.681,276.086 373.788,275.293 374.250 " stroke="none" fill="#fbfbfb" fill-rule="evenodd"></path><path id="path2" d="M83.789 0.254 C 70.523 1.863,57.391 5.866,48.909 10.886 C 47.771 11.559,46.750 12.109,46.639 12.109 C 45.072 12.109,32.466 21.843,27.154 27.154 C 21.843 32.466,12.109 45.072,12.109 46.639 C 12.109 46.750,11.559 47.771,10.886 48.909 C 6.672 56.030,2.602 68.313,0.688 79.688 C -0.034 83.979,-0.034 316.021,0.688 320.313 C 2.602 331.687,6.672 343.970,10.886 351.091 C 11.559 352.229,12.109 353.250,12.109 353.361 C 12.109 353.733,17.663 361.889,19.663 364.453 C 34.914 384.012,57.888 396.838,82.617 399.599 C 85.433 399.914,118.902 399.999,202.539 399.904 L 318.555 399.772 323.047 398.906 C 362.635 391.279,391.820 362.012,398.888 322.852 L 399.805 317.773 399.805 200.000 L 399.805 82.227 398.888 77.148 C 391.820 37.988,362.635 8.721,323.047 1.094 L 318.555 0.228 201.758 0.170 C 137.520 0.138,84.434 0.175,83.789 0.254 M161.034 102.246 L 161.131 201.758 161.230 102.246 L 161.330 2.734 172.071 2.734 L 182.813 2.734 182.909 100.684 L 183.006 198.633 183.105 100.684 L 183.205 2.734 211.132 2.734 L 239.059 2.734 239.159 101.465 C 239.251 192.923,239.174 205.670,238.509 209.961 C 238.296 211.335,238.320 211.406,238.705 210.547 C 238.947 210.010,239.238 207.593,239.353 205.176 L 239.562 200.781 255.253 200.781 C 267.196 200.781,271.101 200.898,271.601 201.270 C 272.986 202.300,271.092 215.064,268.301 223.509 C 265.169 232.985,254.449 250.000,251.612 250.000 C 251.266 250.000,247.273 246.293,242.739 241.762 L 234.494 233.524 234.848 231.577 C 235.043 230.505,235.136 229.335,235.056 228.975 C 234.975 228.615,234.692 229.639,234.426 231.250 C 234.159 232.861,233.853 234.707,233.744 235.352 C 233.614 236.125,233.667 236.349,233.902 236.009 C 234.334 235.385,249.609 250.943,249.609 252.007 C 249.609 254.602,228.560 268.277,228.172 265.934 C 228.087 265.419,227.722 266.449,227.312 268.359 C 226.485 272.217,226.439 272.671,226.953 271.875 C 227.161 271.553,227.334 270.913,227.338 270.452 C 227.343 269.770,228.297 269.145,232.520 267.060 C 238.335 264.189,243.017 261.172,247.477 257.422 C 249.138 256.025,250.832 254.636,251.243 254.335 C 252.014 253.769,269.922 270.855,269.922 272.157 C 269.922 272.556,265.596 272.656,248.294 272.656 L 226.665 272.656 226.058 274.902 C 225.289 277.743,224.825 281.061,225.375 279.789 C 225.583 279.307,225.870 278.033,226.013 276.957 L 226.273 275.000 247.479 275.000 C 272.663 275.000,271.654 274.844,267.866 278.156 C 255.534 288.941,240.654 296.731,224.662 300.776 C 220.881 301.732,221.040 301.776,221.465 299.889 C 221.646 299.089,221.662 298.352,221.502 298.253 C 221.341 298.154,221.014 299.341,220.774 300.892 C 220.535 302.442,220.066 304.929,219.731 306.419 C 219.397 307.908,219.183 309.307,219.256 309.527 C 219.330 309.748,219.614 308.793,219.888 307.405 C 220.162 306.018,220.445 304.680,220.518 304.432 C 220.591 304.184,221.936 303.696,223.509 303.347 C 239.036 299.901,254.819 291.969,268.056 280.959 C 269.930 279.400,271.644 278.125,271.865 278.125 C 272.136 278.125,272.266 290.662,272.266 316.983 L 272.266 355.841 271.387 356.404 C 261.302 362.860,230.177 370.774,211.158 371.718 L 205.714 371.988 206.568 370.902 C 207.038 370.305,207.408 369.533,207.390 369.186 C 207.372 368.839,207.113 369.114,206.814 369.797 C 205.927 371.823,203.845 373.132,201.055 373.417 C 195.016 374.035,209.647 374.261,239.300 374.008 C 262.518 373.811,270.809 373.857,271.429 374.189 C 272.254 374.631,272.266 374.789,272.266 385.951 L 272.266 397.266 180.510 397.266 C 121.126 397.266,87.327 397.125,84.709 396.868 C 41.143 392.582,7.418 358.857,3.132 315.291 C 2.584 309.720,2.584 90.280,3.132 84.709 C 7.109 44.283,36.717 11.783,76.367 4.322 C 83.793 2.924,86.439 2.839,124.121 2.786 L 160.938 2.734 161.034 102.246 M272.266 14.049 C 272.266 24.835,272.230 25.382,271.510 25.768 C 271.025 26.027,265.145 26.172,255.104 26.172 L 239.453 26.172 239.453 14.453 L 239.453 2.734 255.859 2.734 L 272.266 2.734 272.266 14.049 M315.291 3.132 C 333.901 4.963,351.996 12.547,365.283 24.087 L 367.090 25.656 351.254 25.914 C 325.813 26.328,276.234 26.233,275.365 25.768 C 274.645 25.382,274.609 24.835,274.609 14.049 L 274.609 2.734 292.927 2.734 C 303.002 2.734,313.066 2.913,315.291 3.132 M271.510 27.748 C 272.210 28.123,272.266 28.626,272.266 34.628 L 272.266 41.104 271.191 40.903 C 270.601 40.793,267.759 39.716,264.877 38.510 C 259.116 36.101,250.167 33.117,243.652 31.435 L 239.453 30.351 239.453 29.054 L 239.453 27.757 244.629 27.636 C 258.278 27.316,270.800 27.368,271.510 27.748 M369.359 27.919 C 370.161 28.528,323.611 75.781,322.210 75.781 C 321.898 75.781,320.948 75.062,320.099 74.182 C 311.245 65.013,294.826 53.226,279.883 45.312 C 274.120 42.260,274.609 43.207,274.609 35.115 C 274.609 28.907,274.682 28.121,275.293 27.766 C 276.510 27.057,368.420 27.207,369.359 27.919 M372.029 31.087 C 372.463 32.219,372.299 123.426,371.861 124.244 C 371.485 124.948,370.978 125.000,364.500 125.000 C 356.253 125.000,357.614 125.928,352.763 116.992 C 345.547 103.701,333.239 86.817,325.444 79.517 C 324.770 78.886,324.219 78.095,324.219 77.760 C 324.219 77.068,370.654 30.469,371.344 30.469 C 371.590 30.469,371.898 30.747,372.029 31.087 M247.638 34.645 C 255.590 36.925,268.614 41.837,271.387 43.600 L 272.266 44.159 272.266 83.017 C 272.266 109.338,272.136 121.875,271.865 121.875 C 271.644 121.875,269.906 120.579,268.004 118.995 C 259.830 112.193,242.934 101.953,239.883 101.953 C 239.573 101.953,239.453 92.218,239.453 67.180 L 239.453 32.407 240.527 32.660 C 241.118 32.799,244.318 33.692,247.638 34.645 M378.530 38.027 C 386.958 48.735,393.070 62.407,395.670 76.367 C 397.032 83.684,397.266 88.150,397.266 106.877 L 397.266 125.000 385.756 125.000 C 374.776 125.000,374.228 124.965,373.842 124.244 C 373.376 123.374,373.281 73.783,373.697 48.282 L 373.956 32.374 374.882 33.472 C 375.392 34.076,377.033 36.126,378.530 38.027 M280.981 48.261 C 290.613 53.528,301.000 60.510,308.505 66.762 C 314.707 71.929,320.311 77.153,320.312 77.768 C 320.313 78.571,276.030 122.656,275.222 122.656 C 274.582 122.656,274.232 46.601,274.870 45.964 C 275.430 45.404,276.472 45.796,280.981 48.261 M327.340 84.766 C 340.442 99.413,356.170 123.657,353.288 124.763 C 351.954 125.275,277.344 125.027,277.344 124.510 C 277.344 124.040,317.185 84.088,320.619 81.114 C 322.660 79.347,322.334 79.169,327.340 84.766 M246.120 107.266 C 253.990 111.249,261.062 115.969,267.480 121.521 C 271.641 125.120,272.105 125.000,254.070 125.000 L 239.453 125.000 239.453 114.622 L 239.453 104.244 240.332 104.513 C 240.815 104.661,243.420 105.900,246.120 107.266 M270.313 127.843 C 270.313 128.461,252.672 146.094,252.054 146.094 C 251.809 146.094,250.587 145.199,249.339 144.105 C 247.047 142.096,242.505 138.599,240.527 137.323 C 239.455 136.630,239.453 136.622,239.453 131.986 L 239.453 127.344 254.883 127.344 C 267.151 127.344,270.313 127.446,270.313 127.843 M356.720 129.688 C 361.402 139.215,366.860 156.644,369.113 169.260 C 371.042 180.064,372.327 198.302,371.216 199.121 C 370.249 199.834,307.481 199.834,306.527 199.121 C 306.010 198.734,305.789 197.495,305.467 193.164 C 303.736 169.880,295.504 149.510,280.569 131.553 C 279.010 129.679,277.734 127.965,277.734 127.743 C 277.734 127.468,290.123 127.372,316.699 127.440 L 355.664 127.539 356.720 129.688 M371.861 128.099 C 372.692 129.651,372.296 170.527,371.459 169.647 C 371.296 169.476,370.790 167.600,370.335 165.478 C 367.512 152.323,364.254 141.780,359.797 131.369 C 357.955 127.065,357.593 127.344,365.025 127.344 C 370.984 127.344,371.487 127.399,371.861 128.099 M397.170 163.379 L 397.070 199.414 386.313 199.518 C 377.947 199.598,375.401 199.508,374.859 199.111 C 373.714 198.274,372.738 130.161,373.842 128.099 C 374.228 127.379,374.776 127.344,385.758 127.344 L 397.270 127.344 397.170 163.379 M278.954 133.165 C 293.352 150.066,301.503 170.246,303.108 192.969 C 303.471 198.106,303.447 198.678,302.851 199.121 C 302.004 199.751,276.530 199.829,275.365 199.205 C 274.379 198.677,274.151 129.297,275.135 129.297 C 275.423 129.297,277.142 131.037,278.954 133.165 M272.266 154.766 C 272.266 170.152,272.127 179.313,271.899 179.082 C 271.697 178.878,270.547 176.250,269.342 173.242 C 265.711 164.177,261.461 157.072,255.866 150.716 C 254.788 149.492,253.906 148.260,253.906 147.979 C 253.906 147.323,271.120 130.078,271.774 130.078 C 272.164 130.078,272.266 135.189,272.266 154.766 M245.817 144.163 C 248.010 146.005,249.852 147.764,249.910 148.072 C 249.969 148.381,247.640 151.003,244.735 153.901 L 239.453 159.169 239.453 149.289 L 239.453 139.409 240.642 140.111 C 241.295 140.497,243.624 142.320,245.817 144.163 M254.869 153.027 C 264.495 164.112,270.580 178.690,271.866 193.749 C 272.420 200.238,274.208 199.609,255.199 199.609 L 239.453 199.609 239.453 180.766 L 239.453 161.923 245.405 155.962 C 252.383 148.973,251.568 149.226,254.869 153.027 M302.838 201.270 C 304.817 202.771,301.268 224.754,297.335 235.352 C 292.489 248.410,278.598 270.475,275.098 270.675 C 274.209 270.726,274.403 201.721,275.293 201.203 C 276.357 200.584,302.015 200.645,302.838 201.270 M371.192 201.270 C 372.407 202.198,370.849 222.149,368.719 232.930 C 366.244 245.461,359.333 266.592,356.013 271.777 L 355.451 272.656 316.593 272.656 C 290.272 272.656,277.734 272.527,277.734 272.255 C 277.734 272.035,279.010 270.321,280.569 268.447 C 295.450 250.555,303.641 230.353,305.468 207.031 C 305.792 202.908,306.023 201.651,306.531 201.270 C 307.038 200.888,314.125 200.781,338.867 200.781 C 363.615 200.781,370.694 200.888,371.192 201.270 M397.170 236.816 L 397.270 272.656 385.758 272.656 C 374.776 272.656,374.228 272.621,373.842 271.901 C 372.730 269.824,373.702 202.125,374.856 201.282 C 375.402 200.882,377.924 200.792,386.313 200.873 L 397.070 200.977 397.170 236.816 M161.372 206.250 C 161.322 207.400,162.391 213.693,162.687 213.989 C 163.004 214.306,162.898 213.390,162.128 209.180 C 161.735 207.031,161.395 205.713,161.372 206.250 M187.874 209.082 C 189.493 210.807,189.844 211.117,189.844 210.824 C 189.844 210.761,189.009 209.926,187.988 208.968 L 186.133 207.227 187.874 209.082 M237.521 214.729 C 236.692 219.462,236.658 219.770,237.042 219.141 C 237.433 218.500,238.389 212.478,238.140 212.228 C 238.055 212.144,237.776 213.269,237.521 214.729 M163.155 216.539 C 163.279 217.793,163.614 219.639,163.901 220.640 L 164.422 222.461 164.210 220.703 C 164.093 219.736,163.758 217.891,163.464 216.602 L 162.931 214.258 163.155 216.539 M235.963 222.949 C 235.161 227.701,235.097 228.553,235.697 226.500 C 236.278 224.512,236.885 220.313,236.592 220.313 C 236.491 220.313,236.208 221.499,235.963 222.949 M272.266 245.313 C 272.266 264.653,272.162 269.922,271.781 269.922 C 271.057 269.922,253.906 252.648,253.906 251.919 C 253.906 251.575,254.277 250.958,254.730 250.549 C 259.056 246.640,266.117 235.212,269.308 226.953 C 271.063 222.412,271.812 220.703,272.048 220.703 C 272.168 220.703,272.266 231.777,272.266 245.313 M164.696 224.770 C 164.817 226.041,165.073 227.447,165.266 227.895 C 165.684 228.870,165.366 225.935,164.824 223.822 C 164.553 222.762,164.524 222.972,164.696 224.770 M165.689 229.688 C 165.650 230.682,166.667 235.938,166.953 236.224 C 167.102 236.372,167.098 235.710,166.945 234.751 C 166.571 232.398,165.717 228.959,165.689 229.688 M372.213 261.256 C 372.280 273.828,373.019 272.656,365.025 272.656 C 357.593 272.656,357.955 272.935,359.797 268.631 C 364.249 258.232,367.466 247.827,370.341 234.522 C 370.799 232.400,371.288 230.488,371.427 230.273 C 371.713 229.831,372.135 246.448,372.213 261.256 M232.853 239.192 C 232.342 242.123,232.331 242.581,232.786 241.797 C 233.179 241.121,233.784 236.719,233.484 236.719 C 233.373 236.719,233.089 237.832,232.853 239.192 M167.474 239.436 C 167.598 240.608,167.929 242.366,168.209 243.342 L 168.719 245.117 168.490 243.229 C 168.364 242.191,168.033 240.433,167.754 239.323 L 167.248 237.305 167.474 239.436 M231.459 246.523 C 231.100 248.478,230.889 250.160,230.990 250.261 C 231.190 250.461,231.807 247.773,232.239 244.824 C 232.715 241.574,232.138 242.831,231.459 246.523 M169.012 247.461 C 169.141 248.750,169.400 250.156,169.586 250.586 C 170.011 251.567,169.594 247.666,169.114 246.169 C 168.889 245.469,168.855 245.900,169.012 247.461 M229.897 254.726 C 229.192 258.559,229.276 259.917,230.008 256.545 C 230.659 253.552,230.989 251.172,230.755 251.172 C 230.642 251.172,230.256 252.771,229.897 254.726 M170.523 255.375 C 170.637 256.505,170.898 257.823,171.103 258.304 C 171.370 258.934,171.405 258.633,171.226 257.234 C 170.863 254.388,170.263 252.801,170.523 255.375 M228.556 261.458 C 228.045 264.388,228.034 264.846,228.489 264.063 C 228.882 263.387,229.487 258.984,229.187 258.984 C 229.077 258.984,228.793 260.097,228.556 261.458 M171.548 260.156 C 171.510 261.151,172.526 266.406,172.812 266.693 C 172.961 266.841,172.958 266.178,172.805 265.220 C 172.430 262.867,171.576 259.428,171.548 260.156 M173.293 269.401 C 173.408 270.511,173.744 272.269,174.040 273.307 L 174.578 275.195 174.349 273.307 C 174.223 272.269,173.887 270.511,173.602 269.401 L 173.083 267.383 173.293 269.401 M353.794 275.661 C 354.702 278.029,340.301 300.232,330.278 311.914 C 324.084 319.134,322.744 320.387,321.769 319.865 C 320.467 319.169,277.344 276.122,277.344 275.519 C 277.344 274.622,353.449 274.763,353.794 275.661 M371.861 275.756 C 372.884 277.667,372.286 370.078,371.252 369.841 C 370.532 369.676,324.219 322.820,324.219 322.257 C 324.219 321.997,325.634 320.290,327.364 318.462 C 336.620 308.684,345.719 295.983,352.763 283.008 C 357.614 274.072,356.253 275.000,364.500 275.000 C 370.978 275.000,371.485 275.052,371.861 275.756 M397.266 293.123 C 397.266 303.090,397.087 313.066,396.868 315.291 C 394.974 334.545,387.843 351.163,374.882 366.528 L 373.956 367.626 373.697 351.132 C 373.283 324.787,373.375 276.627,373.842 275.756 C 374.228 275.035,374.776 275.000,385.756 275.000 L 397.266 275.000 397.266 293.123 M174.847 277.539 C 174.973 278.828,175.239 280.146,175.438 280.469 C 175.671 280.846,175.707 280.361,175.538 279.109 C 175.125 276.055,174.582 274.819,174.847 277.539 M297.948 299.706 C 310.248 312.005,320.313 322.260,320.313 322.494 C 320.313 323.038,310.122 332.049,304.985 336.047 C 294.786 343.987,276.994 354.846,275.270 354.184 C 274.401 353.851,274.228 277.344,275.096 277.344 C 275.364 277.344,285.647 287.407,297.948 299.706 M224.484 282.129 C 224.058 283.918,223.811 286.925,224.156 286.133 C 224.540 285.252,225.117 281.250,224.860 281.250 C 224.769 281.250,224.600 281.646,224.484 282.129 M175.845 282.031 C 175.804 283.081,176.831 288.290,177.136 288.582 C 177.299 288.739,177.316 288.164,177.174 287.305 C 176.794 285.012,175.871 281.351,175.845 282.031 M223.072 289.539 C 222.812 290.888,222.502 292.432,222.382 292.969 C 222.239 293.614,222.296 293.813,222.551 293.555 C 222.949 293.152,223.973 287.515,223.698 287.240 C 223.613 287.155,223.331 288.190,223.072 289.539 M177.621 291.211 C 177.743 292.285,177.983 293.516,178.154 293.945 L 178.466 294.727 178.453 293.945 C 178.446 293.516,178.206 292.285,177.920 291.211 L 177.399 289.258 177.621 291.211 M179.363 300.195 C 179.357 300.840,179.503 301.719,179.688 302.148 C 180.146 303.216,180.146 301.433,179.688 300.000 C 179.383 299.048,179.374 299.053,179.363 300.195 M196.378 303.798 C 197.071 303.884,198.302 303.885,199.112 303.801 C 199.923 303.716,199.355 303.646,197.852 303.644 C 196.348 303.642,195.685 303.711,196.378 303.798 M180.729 307.031 C 180.946 309.172,181.646 311.233,181.591 309.570 C 181.577 309.141,181.328 307.910,181.039 306.836 L 180.512 304.883 180.729 307.031 M218.380 312.741 C 218.133 314.163,218.005 315.401,218.098 315.494 C 218.303 315.699,218.606 314.476,218.962 312.012 C 219.368 309.198,218.893 309.793,218.380 312.741 M181.690 311.328 C 181.656 312.292,182.670 317.175,182.965 317.471 C 183.116 317.621,183.114 316.960,182.960 316.001 C 182.613 313.832,181.718 310.537,181.690 311.328 M217.022 319.434 C 216.884 320.239,216.681 321.426,216.571 322.070 C 216.431 322.894,216.481 323.068,216.736 322.656 C 217.137 322.011,217.764 317.969,217.463 317.969 C 217.359 317.969,217.161 318.628,217.022 319.434 M183.464 320.293 C 183.587 321.464,183.918 323.134,184.198 324.004 L 184.708 325.586 184.477 323.828 C 184.350 322.861,184.019 321.191,183.743 320.117 L 183.240 318.164 183.464 320.293 M215.456 327.186 C 215.089 329.033,214.874 330.629,214.977 330.733 C 215.151 330.907,215.615 328.911,216.240 325.293 C 216.745 322.371,216.105 323.915,215.456 327.186 M346.529 348.178 C 368.619 370.071,370.064 371.586,369.356 372.104 C 368.402 372.801,276.662 372.946,275.365 372.252 C 274.661 371.875,274.609 371.369,274.609 364.891 C 274.609 356.644,273.681 358.004,282.617 353.153 C 295.675 346.065,307.904 337.295,318.271 327.584 C 320.745 325.267,322.061 324.288,322.420 324.498 C 322.709 324.666,333.558 335.323,346.529 348.178 M185.032 328.125 C 185.287 330.579,185.897 332.558,185.875 330.859 C 185.868 330.322,185.625 329.004,185.336 327.930 L 184.809 325.977 185.032 328.125 M213.881 334.804 C 213.177 338.637,213.260 339.995,213.993 336.623 C 214.643 333.631,214.974 331.250,214.739 331.250 C 214.626 331.250,214.240 332.849,213.881 334.804 M186.549 335.526 C 186.668 336.696,186.931 337.927,187.132 338.261 C 187.374 338.661,187.411 338.270,187.241 337.109 C 186.828 334.287,186.298 333.076,186.549 335.526 M212.554 341.276 C 212.031 343.880,212.008 344.555,212.468 343.750 C 212.844 343.092,213.453 339.063,213.177 339.063 C 213.079 339.063,212.798 340.059,212.554 341.276 M187.564 339.844 C 187.525 340.838,188.542 346.094,188.828 346.380 C 188.977 346.529,188.973 345.866,188.820 344.907 C 188.446 342.555,187.592 339.115,187.564 339.844 M211.406 346.970 C 210.688 350.336,210.427 352.163,210.702 351.909 C 211.025 351.610,212.232 345.304,212.008 345.081 C 211.918 344.991,211.647 345.841,211.406 346.970 M189.220 348.633 C 189.786 352.012,190.310 354.351,190.467 354.194 C 190.672 353.989,189.466 347.534,189.173 347.266 C 189.055 347.158,189.077 347.773,189.220 348.633 M209.613 356.120 C 209.268 357.982,209.058 359.578,209.146 359.667 C 209.296 359.816,209.782 357.661,210.381 354.199 C 210.520 353.394,210.546 352.734,210.438 352.734 C 210.330 352.734,209.959 354.258,209.613 356.120 M190.885 357.031 C 191.102 359.172,191.802 361.233,191.747 359.570 C 191.733 359.141,191.485 357.910,191.195 356.836 L 190.668 354.883 190.885 357.031 M272.266 365.416 C 272.266 371.375,272.210 371.877,271.510 372.252 C 270.256 372.923,229.255 372.522,229.966 371.846 C 230.135 371.685,232.009 371.181,234.131 370.726 C 247.532 367.849,259.513 364.092,269.531 359.625 C 272.332 358.376,272.266 358.236,272.266 365.416 M208.211 363.046 C 207.948 364.440,207.812 365.810,207.910 366.091 C 208.007 366.372,208.307 365.316,208.575 363.744 C 208.844 362.172,208.979 360.802,208.876 360.699 C 208.773 360.596,208.474 361.652,208.211 363.046 M192.425 365.039 C 192.551 366.328,192.817 367.646,193.017 367.969 C 193.250 368.346,193.285 367.861,193.116 366.609 C 192.703 363.555,192.160 362.319,192.425 365.039 M193.359 369.260 C 193.359 370.515,195.534 372.634,197.461 373.256 C 197.891 373.395,197.544 373.094,196.691 372.588 C 195.838 372.082,194.740 371.073,194.250 370.346 C 193.760 369.620,193.359 369.131,193.359 369.260 M351.025 374.087 L 367.090 374.344 365.283 375.913 C 354.103 385.623,338.924 392.823,323.633 395.670 C 316.307 397.034,311.846 397.266,292.927 397.266 L 274.609 397.266 274.609 385.957 C 274.609 375.599,274.667 374.615,275.293 374.250 C 276.086 373.788,325.723 373.681,351.025 374.087 " stroke="none" fill="#c4c4c4" fill-rule="evenodd"></path></g></svg>